<svg xmlns="http://www.w3.org/2000/svg" xmlns:xlink="http://www.w3.org/1999/xlink" width="45" height="45" viewBox="0 0 45 45"><defs><style>.a{fill:none;}.b{fill:url(#a);}.c{fill:#0079c1;opacity:0.3;}</style><linearGradient id="a" x1="0.5" x2="0.5" y2="1" gradientUnits="objectBoundingBox"><stop offset="0" stop-color="#ea212d"/><stop offset="1" stop-color="#127abf"/></linearGradient></defs><path class="a" d="M0,0H45V45H0Z"/><path class="b" d="M15.941,26.1a1.5,1.5,0,0,0,1.868,0L30.675,15.856l1.593-1.262a1.5,1.5,0,0,0,0-2.35L17.809.743a1.5,1.5,0,0,0-1.867,0L1.475,12.248a1.5,1.5,0,0,0,0,2.347l1.582,1.261Z" transform="translate(5.625 4.688)"/><path class="c" d="M16.159,9.558a1.5,1.5,0,0,1-1.867,0L2.6.26A1.5,1.5,0,0,0,.477.516L.231.833a1.5,1.5,0,0,0,.275,2.11L14.33,13.517a1.5,1.5,0,0,0,1.822,0L29.982,2.944A1.5,1.5,0,0,0,30.256.833L29.994.495A1.5,1.5,0,0,0,27.875.24Z" transform="translate(7.256 26.099)"/></svg>